<svg width="19" height="21" viewBox="0 0 19 21" fill="none" xmlns="http://www.w3.org/2000/svg">
<path d="M7 16.5556H3.1918C1.95025 16.5556 1.32947 16.5556 1.19887 16.447C1.05212 16.325 1.01627 16.253 1.00038 16.0484C0.986237 15.8663 1.36671 15.1651 2.12767 13.7629C2.91334 12.315 3.58046 10.2069 3.58046 7.22222C3.58046 5.57199 4.20413 3.98934 5.31426 2.82245C6.42438 1.65555 7.93004 1 9.5 1C11.07 1 12.5756 1.65555 13.6857 2.82245C14.7959 3.98934 15.4195 5.57199 15.4195 7.22222C15.4195 10.2069 16.0867 12.315 16.8723 13.7629C17.6333 15.1651 18.0138 15.8663 17.9996 16.0484C17.9837 16.253 17.9479 16.325 17.8011 16.447C17.6705 16.5556 17.0498 16.5556 15.8082 16.5556H12M7 16.5556V17.6667C7 18.5 8.26821 19.5 9.5 19.5C10.7318 19.5 12 18.5 12 17.6667V16.5556M7 16.5556H12" stroke="#434343" stroke-width="1.5" stroke-linecap="round" stroke-linejoin="round"/>
</svg>
