<svg width="26" height="25" viewBox="0 0 26 25" fill="none" xmlns="http://www.w3.org/2000/svg">
<path d="M22.8671 20.1666C23.3783 19.2082 23.6667 18.1225 23.6667 16.9722C23.6667 13.0909 20.3834 9.94444 16.3333 9.94444C12.2832 9.94444 9 13.0909 9 16.9722C9 20.8535 12.2832 24 16.3333 24L25 24C25 24 23.6667 22.7222 22.8858 20.2039M22.1333 12.5C22.2645 11.8807 22.3333 11.2397 22.3333 10.5833C22.3333 5.2906 17.8562 1 12.3333 1C6.81049 1 2.33333 5.2906 2.33333 10.5833C2.33333 11.7034 2.53385 12.7786 2.90235 13.7778C4.33464 17.6261 1 20.1666 1 20.1666H9.66667" stroke="#434343" stroke-width="1.5" stroke-linecap="round" stroke-linejoin="round"/>
</svg>
