<svg width="18" height="17" viewBox="0 0 18 17" fill="none" xmlns="http://www.w3.org/2000/svg">
<path d="M15.578 13.5C15.9189 12.8749 16.1111 12.1668 16.1111 11.4167C16.1111 8.88535 13.9223 6.83333 11.2222 6.83333C8.52216 6.83333 6.33333 8.88535 6.33333 11.4167C6.33333 13.948 8.52216 16 11.2222 16L17 16C17 16 16.1111 15.1667 15.5905 13.5243M15.0889 8.49999C15.1763 8.09611 15.2222 7.67808 15.2222 7.24999C15.2222 3.79822 12.2375 1 8.55556 1C4.87366 1 1.88889 3.79822 1.88889 7.24999C1.88889 7.98048 2.02256 8.6817 2.26823 9.33332C3.2231 11.8431 1 13.5 1 13.5H6.77778" stroke="#434343" stroke-opacity="0.3" stroke-linecap="round" stroke-linejoin="round"/>
</svg>
