<svg width="15" height="12" viewBox="0 0 15 12" fill="none" xmlns="http://www.w3.org/2000/svg">
<path d="M0.487002 3.05376C0.18484 3.33708 0.169566 3.81171 0.452887 4.11387C0.736207 4.41604 1.21084 4.43131 1.513 4.14799L0.487002 3.05376ZM13.487 4.14799C13.7892 4.43131 14.2638 4.41604 14.5471 4.11387C14.8304 3.81171 14.8152 3.33708 14.513 3.05376L13.487 4.14799ZM7.5 10.4643C7.08579 10.4643 6.75 10.8001 6.75 11.2143C6.75 11.6285 7.08579 11.9643 7.5 11.9643V10.4643ZM7.5065 11.9643C7.92071 11.9643 8.2565 11.6285 8.2565 11.2143C8.2565 10.8001 7.92071 10.4643 7.5065 10.4643V11.9643ZM9.1688 9.2379C9.46867 9.52365 9.9434 9.51221 10.2292 9.21235C10.5149 8.91248 10.5035 8.43775 10.2036 8.152L9.1688 9.2379ZM11.355 6.71856C11.6549 7.00432 12.1296 6.99288 12.4154 6.69301C12.7011 6.39315 12.6897 5.91841 12.3898 5.63266L11.355 6.71856ZM4.7964 8.152C4.49653 8.43775 4.48509 8.91248 4.77085 9.21235C5.0566 9.51221 5.53133 9.52365 5.8312 9.2379L4.7964 8.152ZM2.6102 5.63266C2.31033 5.91841 2.29889 6.39315 2.58464 6.69301C2.8704 6.99288 3.34513 7.00431 3.645 6.71856L2.6102 5.63266ZM1.513 4.14799C3.10774 2.65269 5.20514 1.75 7.5 1.75V0.25C4.80056 0.25 2.34218 1.31427 0.487002 3.05376L1.513 4.14799ZM7.5 1.75C9.79486 1.75 11.8923 2.65269 13.487 4.14799L14.513 3.05376C12.6578 1.31427 10.1994 0.25 7.5 0.25V1.75ZM7.5 11.9643H7.5065V10.4643H7.5V11.9643ZM7.5 8.55952C8.13718 8.55952 8.72206 8.81218 9.1688 9.2379L10.2036 8.152C9.4958 7.47751 8.54651 7.05952 7.5 7.05952V8.55952ZM7.5 5.15476C8.97902 5.15476 10.331 5.74274 11.355 6.71856L12.3898 5.63266C11.1047 4.40807 9.38836 3.65476 7.5 3.65476V5.15476ZM5.8312 9.2379C6.27794 8.81218 6.86282 8.55952 7.5 8.55952V7.05952C6.45349 7.05952 5.5042 7.47751 4.7964 8.152L5.8312 9.2379ZM3.645 6.71856C4.66901 5.74274 6.02098 5.15476 7.5 5.15476V3.65476C5.61164 3.65476 3.89526 4.40806 2.6102 5.63266L3.645 6.71856Z" fill="#434343"/>
</svg>
