<svg width="26" height="23" viewBox="0 0 26 23" fill="none" xmlns="http://www.w3.org/2000/svg">
<path d="M19.8413 8V2.86667C19.8413 2.21327 19.8413 1.88657 19.6827 1.63701C19.5432 1.41749 19.3206 1.23901 19.0468 1.12716C18.7356 1 18.3281 1 17.5132 1H3.32804C2.51315 1 2.10571 1 1.79446 1.12716C1.52068 1.23901 1.29809 1.41749 1.15859 1.63701C1 1.88657 1 2.21327 1 2.86667V22H19.8413M19.8413 8V22M19.8413 8H22.672C23.4868 8 23.8943 8 24.2055 8.12716C24.4793 8.23901 24.7019 8.41749 24.8414 8.63701C25 8.88657 25 9.21327 25 9.86667V22H19.8413M4.7619 7.41667H13.6905M4.7619 12.6667H10.119" stroke="#434343" stroke-width="1.5" stroke-linecap="round" stroke-linejoin="round"/>
</svg>
